# xmcd
#
# Track frame offsets:
#	150
#	10640
#	24560
#	41682
#	60502
#	80061
#	99926
#	105672
#	152083
#	170593
#	193914
#	203384
#	242861
#	264688
#	285508
#	318304
#	335680
#
# Disc length: 4645 seconds
#
# Revision: 0
# Processed by: cddbd v1.5.2PL0 Copyright (c) Steve Scherf et al.
# Submitted via: EasyCDDAExtractor 10.2.0.1
#
DISCID=e4122311
DTITLE=Eugene Peterson - The Message disk 40
DYEAR=1900
DGENRE=Acapella
TTITLE0=Ezekiel 9
TTITLE1=Ezekiel 10
TTITLE2=Ezekiel 11
TTITLE3=Ezekiel 12
TTITLE4=Ezekiel 13
TTITLE5=Ezekiel 14
TTITLE6=Ezekiel 14
TTITLE7=Ezekiel 16
TTITLE8=Ezekiel 17
TTITLE9=Ezekiel 18
TTITLE10=Ezekiel 19
TTITLE11=Ezekiel 20
TTITLE12=Ezekiel 21
TTITLE13=Ezekiel 22
TTITLE14=Ezekiel 23
TTITLE15=Ezekiel 24
TTITLE16=Ezekiel 25
EXTD=
EXTT0=
EXTT1=
EXTT2=
EXTT3=
EXTT4=
EXTT5=
EXTT6=
EXTT7=
EXTT8=
EXTT9=
EXTT10=
EXTT11=
EXTT12=
EXTT13=
EXTT14=
EXTT15=
EXTT16=
PLAYORDER=
